# xmcd CD database file
#
# Track frame offsets:
#	150
#	14882
#	29951
#	44846
#	65734
#	80794
#	94986
#	112418
#	129463
#	143849
#
# Disc length: 2139 seconds
#
# Revision: 0
# Processed by: cddbd v1.5.2PL0 Copyright (c) Steve Scherf et al.
# Submitted via: CDex 1.70beta2
#
DISCID=a908590a
DTITLE=Jason Blaine - While We Were Waiting
DYEAR=2006
DGENRE=Country
TTITLE0=While We Were Waiting
TTITLE1=What I Can't Forget
TTITLE2=Change The Channel
TTITLE3=Heartache Like Me
TTITLE4=Last Slow Dance
TTITLE5=What Makes A Man
TTITLE6=Reinvent The Wheel
TTITLE7=Say It Again
TTITLE8=That Shine
TTITLE9=That's What I Do
EXTD=YEAR: 2006
EXTT0=
EXTT1=
EXTT2=
EXTT3=
EXTT4=
EXTT5=
EXTT6=
EXTT7=
EXTT8=
EXTT9=
PLAYORDER=
